<svg width="61" height="61" viewBox="0 0 61 61" fill="none" xmlns="http://www.w3.org/2000/svg">
<rect width="61" height="61" rx="30" fill="white"/>
<rect x="0.5" y="0.5" width="60" height="60" rx="29.5" stroke="black" stroke-opacity="0.1"/>
<path d="M30 5.625C16.5352 5.625 5.625 16.5352 5.625 30C5.625 43.4648 16.5352 54.375 30 54.375C43.4648 54.375 54.375 43.4648 54.375 30C54.375 16.5352 43.4648 5.625 30 5.625ZM26.2383 38.6367C25.957 38.918 25.5586 39.1523 25.207 39.1523C24.8555 39.1523 24.457 38.9062 24.1641 38.625L17.6016 32.0625L19.6875 29.9766L25.2188 35.5078L39.8438 20.7773L41.8945 22.8984L26.2383 38.6367Z" fill="#4CAF50"/>
</svg>
